<svg xmlns="http://www.w3.org/2000/svg" xmlns:xlink="http://www.w3.org/1999/xlink" width="219" zoomAndPan="magnify" viewBox="0 0 164.25 54" height="72" preserveAspectRatio="xMidYMid meet" version="1.0"><defs><g/></defs><g fill="#ffffff" fill-opacity="1"><g transform="translate(6.463636, 41.872752)"><g><path d="M 18.4375 -24.390625 C 21.65625 -24.390625 24.132812 -23.332031 25.875 -21.21875 C 27.625 -19.113281 28.5 -16 28.5 -11.875 C 28.5 -7.78125 27.625 -4.6875 25.875 -2.59375 C 24.132812 -0.5 21.65625 0.546875 18.4375 0.546875 C 15.664062 0.546875 13.4375 -0.359375 11.75 -2.171875 L 11.75 8.90625 L 2.75 8.90625 L 2.75 -23.84375 L 10.078125 -23.84375 L 10.84375 -20.46875 C 12.59375 -23.082031 15.125 -24.390625 18.4375 -24.390625 Z M 15.625 -17.75 C 14.300781 -17.75 13.304688 -17.28125 12.640625 -16.34375 C 11.984375 -15.414062 11.65625 -14.195312 11.65625 -12.6875 L 11.65625 -11.203125 C 11.65625 -9.691406 11.984375 -8.460938 12.640625 -7.515625 C 13.304688 -6.566406 14.300781 -6.09375 15.625 -6.09375 C 18.21875 -6.09375 19.515625 -7.644531 19.515625 -10.75 L 19.515625 -13.140625 C 19.515625 -16.210938 18.21875 -17.75 15.625 -17.75 Z M 15.625 -17.75 "/></g></g></g><g fill="#ffffff" fill-opacity="1"><g transform="translate(36.592858, 41.872752)"><g><path d="M 3.03125 0 L 3.03125 -32.75 L 12.015625 -32.75 L 12.015625 0 Z M 3.03125 0 "/></g></g></g><g fill="#ffffff" fill-opacity="1"><g transform="translate(51.634884, 41.872752)"><g><path d="M 15.046875 -24.390625 C 19.234375 -24.390625 22.519531 -23.328125 24.90625 -21.203125 C 27.300781 -19.085938 28.5 -15.992188 28.5 -11.921875 C 28.5 -7.859375 27.300781 -4.765625 24.90625 -2.640625 C 22.519531 -0.515625 19.234375 0.546875 15.046875 0.546875 C 10.859375 0.546875 7.570312 -0.503906 5.1875 -2.609375 C 2.8125 -4.722656 1.625 -7.828125 1.625 -11.921875 C 1.625 -16.015625 2.8125 -19.113281 5.1875 -21.21875 C 7.570312 -23.332031 10.859375 -24.390625 15.046875 -24.390625 Z M 15.046875 -18.296875 C 12.085938 -18.296875 10.609375 -16.59375 10.609375 -13.1875 L 10.609375 -10.609375 C 10.609375 -7.242188 12.085938 -5.5625 15.046875 -5.5625 C 18.023438 -5.5625 19.515625 -7.242188 19.515625 -10.609375 L 19.515625 -13.1875 C 19.515625 -16.59375 18.023438 -18.296875 15.046875 -18.296875 Z M 15.046875 -18.296875 "/></g></g></g><g fill="#ffffff" fill-opacity="1"><g transform="translate(81.764106, 41.872752)"><g><path d="M 19.15625 -24.390625 C 21.925781 -24.390625 24.003906 -23.617188 25.390625 -22.078125 C 26.773438 -20.546875 27.46875 -18.335938 27.46875 -15.453125 L 27.46875 0 L 18.46875 0 L 18.46875 -14.359375 C 18.46875 -15.390625 18.203125 -16.210938 17.671875 -16.828125 C 17.148438 -17.441406 16.410156 -17.75 15.453125 -17.75 C 14.335938 -17.75 13.429688 -17.382812 12.734375 -16.65625 C 12.046875 -15.9375 11.703125 -15.050781 11.703125 -14 L 11.703125 0 L 2.703125 0 L 2.703125 -23.84375 L 10.078125 -23.84375 L 10.65625 -20.234375 C 11.59375 -21.503906 12.820312 -22.515625 14.34375 -23.265625 C 15.863281 -24.015625 17.46875 -24.390625 19.15625 -24.390625 Z M 19.15625 -24.390625 "/></g></g></g><g fill="#ffffff" fill-opacity="1"><g transform="translate(111.893328, 41.872752)"><g><path d="M 19.328125 -23.84375 L 29.8125 -23.84375 L 21 -14.234375 L 30.046875 0 L 19.828125 0 L 14.8125 -8.171875 L 11.703125 -5.15625 L 11.703125 0 L 2.703125 0 L 2.703125 -32.796875 L 11.703125 -32.796875 L 11.703125 -14.71875 Z M 19.328125 -23.84375 "/></g></g></g><g fill="#3eb1d9" fill-opacity="1"><g transform="translate(142.012072, 41.872752)"><g><path d="M 2.75 0 L 2.75 -8.984375 L 12.328125 -8.984375 L 12.328125 0 Z M 2.75 0 "/></g></g></g></svg>